<?xml version="1.0" encoding="iso-8859-1"?><svg width="1536" height="1024" viewBox="0 0 1536 1024" xmlns="http://www.w3.org/2000/svg" xmlns:xlink="http://www.w3.org/1999/xlink"><svg viewBox="0 0 512 512" width="512" height="512" id="L1VzZXJzL2t1a2tvbWFoL3Byb2plY3RzL2Zyb250ZW5kLWJvb3RzdHJhcC12Mi9zcmMvbW9kdWxlcy9zcHJpdGVzL2ltZy9zcHJpdGUtc2VhLnN2Zw=="><circle cx="256" cy="256" r="256" fill="#b26483"/><circle cx="256" cy="272" r="173.865" fill="#ce6b8a"/><circle cx="256" cy="272" r="104" fill="#ff7998"/><path d="M30.829 134.11l3.838 16.552 114.667 40.592 7.168-12.436-2.093-8.743a51.869 51.869 0 0 0 2.957-17.32c0-19.42-10.674-36.323-26.458-45.237.285-2.203.482-4.433.482-6.714 0-21.412-13.025-39.666-31.523-47.617-28.275 21.8-51.902 49.334-69.038 80.923z" fill="#9b5a6f" opacity=".55"/><path d="M.548 272C8.814 405.924 119.994 512 256 512s247.186-106.076 255.452-240H.548z" fill="#ff4f70"/><path d="M208 272c0-26.51 21.49-48 48-48s48 21.49 48 48" fill="#fff"/><path d="M157.366 178.731c-.296 0-.569.08-.864.087-3.979-19.802-21.455-34.721-42.429-34.721-.998 0-1.931.227-2.912.293-7.055-20.318-26.318-34.927-49.039-34.927-6.532 0-12.722 1.328-18.481 3.529C17.484 151.758 1.738 198.089.202 248h157.164C176.494 248 192 232.493 192 213.366c0-19.128-15.506-34.635-34.634-34.635zM469.868 115.346c-20.114 2.186-36.777 15.764-43.258 34.253-.984-.056-1.959-.15-2.958-.15-22.666 0-41.883 14.574-48.921 34.843-.974-.082-1.91-.292-2.905-.292-19.082 0-34.551 15.469-34.551 34.551-9.541 0-17.275 7.734-17.275 17.275 0 9.541 7.734 17.275 17.275 17.275h174.651c-.566-50.858-15.951-98.139-42.058-137.755z" fill="#9b5a6f"/><path d="M199.215 6.399a45.098 45.098 0 0 0-5.08 20.802c0 25.036 20.296 45.333 45.333 45.333.426 0 .821-.113 1.243-.125 4 15.679 18.097 27.325 35.023 27.325C275.734 119.763 291.971 136 312 136c13.847 0 25.736-7.85 31.846-19.258 8.917 6.39 19.813 10.191 31.62 10.191 30.044 0 54.399-24.355 54.399-54.399 0-1.624-.268-3.175-.407-4.763C383.844 25.715 322.935 0 256 0c-19.525 0-38.512 2.259-56.785 6.399z" fill="#9b5a6f" opacity=".55"/><path d="M256 406.667c74.375 0 134.667-60.292 134.667-134.667H121.333c0 74.374 60.292 134.667 134.667 134.667z" fill="#ffbc94" opacity=".38"/><path d="M256 338.214c36.569 0 66.214-29.645 66.214-66.214H189.786c0 36.569 29.645 66.214 66.214 66.214z" fill="#ffe6b4" opacity=".38"/><path fill="#674447" d="M181.682 365.163h-75.169l-18.282-23.516h111.732zM151.826 266.094h-9.311v65.177h50.652c-.001 0-13.036-65.177-41.341-65.177z"/><path d="M144.03 277.356h7.702v53.915h-41.9c.001 0 10.784-53.915 34.198-53.915z" fill="#674447"/><path fill="#674447" d="M141.863 245.051h4.469v96.596h-4.469z"/><path d="M341.248 299.859h-84.474l-12.314-17.384h105.48v8.692c0 4.8-3.891 8.692-8.692 8.692z" fill="#9b5a6f"/><path fill="#9b5a6f" d="M253.514 285.01l17.746-17.746h67.363l6.518 15.211-23.54 15.573z"/><path fill="#9b5a6f" d="M292.628 262.737h14.486v6.7h-14.486zM280.677 258.362h2.406v11.075h-2.406z"/><g><path d="M294 356.342v13.359h10v47.777h8.127v-9.761l26.51-16.025 26.509 16.025v9.762h8.127v-8.821l28.065-16.965 24.954 15.085v10.702h8.127v-9.118l27.574-16.669 7.97 4.818c1.099-1.67 2.134-3.385 3.194-5.082l-5.363-3.242 11.358-6.866a256.049 256.049 0 0 0 5.508-10.342l-22.667 13.702-24.776-14.978h48.088l.002-.004c2.179-4.388 4.265-8.829 6.195-13.355H294zm18.127 44.363v-25.038l20.709 12.519-20.709 12.519zm1.733-31.003h49.553l-24.776 14.978-24.777-14.978zm51.286 31.003l-20.709-12.519 20.709-12.519v25.038zm8.127.94v-26.919l22.265 13.459-22.265 13.46zm3.289-31.943h49.553l-24.776 14.978-24.777-14.978zm49.73 30.062l-19.154-11.579 19.154-11.579v23.158zm29.901-11.578l-21.774 13.163v-26.325l21.774 13.162z" fill="#674447"/></g></svg><svg viewBox="0 0 512 512" width="512" height="512" id="L1VzZXJzL2t1a2tvbWFoL3Byb2plY3RzL2Zyb250ZW5kLWJvb3RzdHJhcC12Mi9zcmMvbW9kdWxlcy9zcHJpdGVzL2ltZy9zcHJpdGUtc3BydWNlLnN2Zw==" x="512"><circle cx="256" cy="256" r="256" fill="#9af4ef"/><path d="M4.117 210.478C1.463 225.259 0 240.455 0 256s1.463 30.741 4.117 45.522c56.15 21.145 150.29 35.02 256.996 35.02 100.085 0 189.083-12.214 246.083-31.176C510.319 289.388 512 272.893 512 256s-1.681-33.388-4.803-49.366c-57-18.962-145.998-31.177-246.083-31.177-106.707 0-200.846 13.876-256.997 35.021z" fill="#4cd3cb"/><path d="M451.591 90.907c-11.88 2.939-22.068 10.155-28.861 19.92-2.833-.893-5.79-1.509-8.917-1.509-16.465 0-29.813 13.347-29.813 29.813h99.743a256.334 256.334 0 0 0-32.152-48.224z" fill="#fff"/><path d="M439.349 434.576c40.389-41.462 66.8-96.552 71.735-157.736l-9.579-14.369h10.332c.053-2.158.163-4.301.163-6.471 0-6.144-.293-12.216-.719-18.251L484 196.828l-43.762 65.643h26.257l-35.01 52.515h26.257l-35.01 52.515h26.257l-35.01 52.515h26.257l-9.488 14.232c2.874.074 5.73.231 8.601.328zM59.01 367.5h26.257l-35.01-52.515h26.257l-35.01-52.515h26.257L24 196.828 1.234 230.976A259.003 259.003 0 0 0 0 256c0 2.17.11 4.313.164 6.471h6.332l-5.989 8.983C4.37 336.276 32.32 394.603 75.571 437.582l3.958.083-11.767-17.65h26.257L59.01 367.5zM162.171 389.211l-9.488 14.232c24.344.63 48.684 2.196 72.439 2.649 12.042.23 24.176.51 36.34.768l-11.767-17.65h26.257l-35.01-52.515H267.2l-35.01-52.515h26.257l-35.01-52.515h26.257l-43.762-65.643-43.762 65.643h26.257l-35.01 52.515h26.257l-35.01 52.515h26.257l-35.01 52.515 26.26.001z" fill="#00bdb3"/><path d="M259.504 389.211l-9.488 14.232c24.344.63 48.684 2.196 72.439 2.649 12.042.23 24.176.51 36.34.768l-11.767-17.65h26.257l-35.01-52.515h26.257l-35.01-52.515h26.257l-35.01-52.515h26.257l-43.762-65.643-43.762 65.643h26.257l-35.01 52.515h26.257l-35.01 52.515h26.257l-35.01 52.515 26.261.001z" fill="#00bdb3"/><path fill="#00bdb3" d="M433.871 232l-134.109-18.357L152 222.822l-42.667-8.047-59.497 30.868L85.267 367.5h265.999L433.871 264z"/><path d="M348.238 403.188l-9.488 14.232c24.344.63 48.684 2.196 72.439 2.649 12.042.23 24.176.51 36.34.768l-11.767-17.65h26.257l-35.01-52.515h26.257l-35.01-52.515h26.257l-35.01-52.515h26.257L392 180l-43.762 65.643h26.257l-35.01 52.515h26.257l-35.01 52.515h26.257l-35.01 52.515h26.259zM65.571 403.188l-9.488 14.232c24.344.63 48.684 2.196 72.439 2.649 12.042.23 24.176.51 36.34.768l-11.767-17.65h26.257l-35.01-52.515H170.6l-35.01-52.515h26.257l-35.01-52.515h26.257L109.333 180l-43.762 65.643h26.257l-35.01 52.515h26.257l-35.01 52.515h26.257l-35.01 52.515h26.259z" fill="#00bdb3"/><path d="M488.29 363.593l-8.614-12.92h14.167a254.45 254.45 0 0 0 4.317-11.659l-27.237-40.856h26.257l-35.01-52.515h26.257L444.666 180l-43.762 65.643h26.257l-35.01 52.515h26.257l-35.01 52.515h26.257l-35.01 52.515h26.257l-35.01 52.515h26.257l-18.388 27.583c50.197-26.063 90.651-68.23 114.529-119.693zM23.718 363.593l8.614-12.92H18.164a254.45 254.45 0 0 1-4.317-11.659l27.237-40.856H14.826l35.01-52.515H23.579L67.341 180l43.762 65.643H84.846l35.01 52.515H93.598l35.01 52.515h-26.257l35.01 52.515h-26.257l35.01 52.515h-26.257l18.388 27.583c-50.196-26.063-90.649-68.23-114.527-119.693z" fill="#00a07d"/><path d="M416.369 455.483l-11.855-17.782 26.257.001-35.01-52.515h26.257l-35.01-52.515h26.257l-35.01-52.515h26.257l-35.01-52.515h26.257L352 162l-43.762 65.643h26.257l-35.01 52.515h26.257l-35.01 52.515h26.257l-35.01 52.515h26.257l-35.01 52.515h26.257l-35.01 52.515h26.257l-13.913 20.869c52.622-4.241 100.734-24.357 139.552-55.604zM95.563 455.483l11.855-17.782-26.257.001 35.01-52.515H89.914l35.01-52.515H98.666l35.01-52.515h-26.257l35.01-52.515h-26.257L159.933 162l43.762 65.643h-26.257l35.01 52.515H186.19l35.01 52.515h-26.257l35.01 52.515h-26.257l35.01 52.515h-26.257l35.01 52.515H221.2l13.913 20.869c-52.62-4.241-100.732-24.357-139.55-55.604z" fill="#36b294"/><path d="M223.953 106.162c0-14.576 11.816-26.392 26.392-26.392 2.2 0 4.303.348 6.346.855 6.887-7.437 16.651-12.166 27.586-12.166 20.823 0 37.703 16.88 37.703 37.703h-98.027z" fill="#fff"/><path d="M287.266 148.352c0-9.516 7.715-17.231 17.231-17.231 1.436 0 2.809.227 4.143.558 4.496-4.855 10.871-7.943 18.011-7.943 13.595 0 24.615 11.021 24.615 24.615h-64zM357.5 78.131c0-9.774-7.923-17.697-17.697-17.697-1.475 0-2.886.233-4.256.573-4.618-4.987-11.166-8.158-18.498-8.158-13.963 0-25.282 11.319-25.282 25.282H357.5z" fill="#fff" opacity=".6"/><path d="M237.113 99.737c-2.518 0-4.898.496-7.179 1.215-7.225-10.386-19.21-17.215-32.821-17.215s-25.596 6.829-32.821 17.215c-2.281-.719-4.661-1.215-7.179-1.215-13.255 0-24 10.745-24 24h128c0-13.255-10.745-24-24-24z" fill="#fff"/><path d="M199.248 56.398c-1.388 0-2.699.273-3.956.67-3.982-5.724-10.587-9.487-18.088-9.487s-14.106 3.763-18.088 9.487c-1.257-.396-2.569-.67-3.956-.67-7.305 0-13.227 5.922-13.227 13.227h70.542c0-7.305-5.922-13.227-13.227-13.227z" fill="#fff" opacity=".6"/><path d="M308.514 423.701l26.257.001-35.01-52.515h26.257l-35.01-52.515h26.257l-35.01-52.515h26.257l-35.01-52.515h26.257L256 148l-43.762 65.643h26.257l-35.01 52.515h26.257l-35.01 52.515h26.257l-35.01 52.515h26.257l-35.01 52.515h26.257l-35.01 52.515h26.257l-15.939 23.908C203.159 507.824 229.089 512 256 512s52.841-4.176 77.206-11.875l-15.939-23.91h26.257l-35.01-52.514z" fill="#00a07d"/><path d="M104 139.131c0-13.255-10.745-24-24-24-2.518 0-4.898.496-7.179 1.215-4.958-7.127-12.188-12.51-20.615-15.23-9.054 11.895-17.06 24.617-23.949 38.015H104z" fill="#fff" opacity=".6"/></svg><svg viewBox="0 0 512 512" width="512" height="512" id="L1VzZXJzL2t1a2tvbWFoL3Byb2plY3RzL2Zyb250ZW5kLWJvb3RzdHJhcC12Mi9zcmMvbW9kdWxlcy9zcHJpdGVzL2ltZy9zcHJpdGUtd2F0ZXJmYWxsLnN2Zw==" y="512"><circle cx="256" cy="256" r="256" fill="#36b294"/><path d="M330.865 11.151c-30.329 10.59.847 24.906-18.865 34.182C289.333 56 289.701 70.179 285.333 74.667L349 96.377s71.041 3.81 111.195 5.249C428.055 59.18 383 27.072 330.865 11.151z" fill="#52c883"/><path d="M460.195 101.626c-15.256-20.147-33.5-37.867-53.951-52.731C387.5 52.25 358.5 39 343.25 46.25 334.948 50.197 331.5 60 331.5 60s44.184 23.668 76.728 39.374c18.114.866 37.143 1.721 51.967 2.252z" fill="#36b294"/><path d="M57.174 94.793c1.256.539 2.615.973 4.159 1.207 22 3.333 166.464-16.509 166.464-16.509 2.202-14.825 1.536-23.332-13.131-30.078C200 42.667 201.333 30.667 190 25.333c-4.208-1.98-15.497-4.694-28.293-7.326-41.154 16.321-77.073 42.961-104.533 76.786z" fill="#52c883"/><path d="M58.435 93.337c3.098.143 6.87-.051 11.565-.671C105.333 88 182.352 54.9 182.352 54.9c-9.548-4.669-12.852-16.983-23.852-15.15-13.589 2.265-33.264 5.211-44.571 3.462C93.07 57.155 74.353 74.027 58.435 93.337z" fill="#36b294"/><path d="M12.344 334.592C45.52 437.516 142.041 512 256 512s210.48-74.484 243.656-177.408H12.344z" fill="#b3f4ef"/><path fill="#745154" d="M287.717 336l-3.465-152.259L279.959 80z"/><path d="M321.333 68c-16.664 8.749-37.131-5.333-37.131 11.491l.05 104.25-.414 152.461L336.958 356 320 376h112l68.623-44.341C508.012 307.746 512 282.339 512 256c0-69.407-27.664-132.32-72.514-178.432C405.064 69.486 343.905 56.15 321.333 68z" fill="#745154"/><path d="M439.486 77.568C405.064 69.486 352 37.5 328 56c-23.132 17.831-43.798 6.667-43.798 23.491v1.08c4.256 11.944 12.54 23.88 21.798 21.429 17-4.5 14.561-21.835 27-26.5 16-6 16 17 27 23.378 11.964 6.937-19 70.122-11 75.477 11.341 7.591 23.223-22.505 38.5-36.355s27.487-4.467 39 0c21.905 8.5 21.905-15 47.598-15.909-9.911-16.093-21.501-31.044-34.612-44.523z" fill="#86646a"/><path fill="#745154" d="M283.838 336.202L293.333 356 320 376"/><path d="M512 256c0-7.431-.381-14.77-1.002-22.04L496 232c-19 0-32.091-24-48-24-27.333 0-36 42-59.794 37.398-6.986-1.351-13.972-4.55-20.841-8.398-16.849-9.44-52.365 31-79.648 31l-3.736 15.394-.143 52.808L336.958 356l-11.361 13.398L340 376h92l68.623-44.341C508.012 307.746 512 282.339 512 256z" fill="#674447"/><path fill="#745154" d="M224.283 336l3.465-152.259L232.041 80z"/><path d="M184 56c20.667 14.667 43.798 5 43.798 23.491l-.05 104.25.414 152.259 93.172 23.333L234.666 376H80l-68.623-44.341C3.988 307.746 0 282.339 0 256c0-69.407 27.664-132.32 72.514-178.432C106.936 69.486 154.738 35.233 184 56z" fill="#745154"/><path d="M228.162 336l-.209-77.118L224 256c-24 0-33.82-39.471-64-48-30.667-8.667-53.773 33.387-60.667 24-3.917-5.333 21.164-72-11.333-72-28.944 0-42.662-34.911-42.662-34.911l-3.628-9.067C15.358 156.248 0 204.317 0 256c0 2.837.227 5.618.318 8.433C28.403 293.869 105.378 373.654 107.333 376c2.5 3 66.667-1 66.667-1s41.5-16 47.5-18.899c1.828-.883 5.005-8.914 8.536-19.632l-1.874-.469z" fill="#674447"/><path d="M320 328c-2.078 0-4.164-.883-5.68-2.32-1.445-1.52-2.32-3.602-2.32-5.68 0-2.082.875-4.16 2.32-5.68 2.961-2.961 8.32-2.961 11.359 0 1.438 1.52 2.32 3.598 2.32 5.68 0 2.078-.883 4.16-2.32 5.68-1.523 1.437-3.601 2.32-5.679 2.32zM349 335.95c-2.078 0-4.164-.883-5.68-2.32-1.445-1.52-2.32-3.602-2.32-5.68 0-2.082.875-4.16 2.32-5.68 2.961-2.961 8.32-2.961 11.359 0 1.438 1.52 2.32 3.598 2.32 5.68 0 2.078-.883 4.16-2.32 5.68-1.523 1.437-3.601 2.32-5.679 2.32zM198 331.95c-2.078 0-4.164-.883-5.68-2.32-1.445-1.52-2.32-3.602-2.32-5.68 0-2.082.875-4.16 2.32-5.68 2.961-2.961 8.32-2.961 11.359 0 1.438 1.52 2.32 3.598 2.32 5.68 0 2.078-.883 4.16-2.32 5.68-1.523 1.437-3.601 2.32-5.679 2.32zM360 359.95c-2.078 0-4.164-.883-5.68-2.32-1.445-1.52-2.32-3.602-2.32-5.68 0-2.082.875-4.16 2.32-5.68 2.961-2.961 8.32-2.961 11.359 0 1.438 1.52 2.32 3.598 2.32 5.68 0 2.078-.883 4.16-2.32 5.68-1.523 1.437-3.601 2.32-5.679 2.32zM170.5 347.851c-2.078 0-4.164-.883-5.68-2.32-1.445-1.52-2.32-3.602-2.32-5.68 0-2.082.875-4.16 2.32-5.68 2.961-2.961 8.32-2.961 11.359 0 1.438 1.52 2.32 3.598 2.32 5.68 0 2.078-.883 4.16-2.32 5.68-1.523 1.437-3.601 2.32-5.679 2.32z" fill="#fff"/><path d="M88 88c4.831 2.944 10.246 29.825 12.5 24.946C115.028 81.5 137.098 105.384 168 80c14-11.5 33.667 9.5 40.667 18.5 11.268 14.488-5.167 72 21.369 114.207l-2.238-133.215C227.798 61 204.667 70.667 184 56c-29.263-20.767-77.064 13.486-111.486 21.568a258.477 258.477 0 0 0-7.854 8.461C77.329 87.188 83 84.953 88 88z" fill="#86646a"/><path fill="#ddf9ff" d="M284.202 79.491h-56.404L218.667 352h74.666z"/><path d="M344 376c0-17.673-14.327-32-32-32-2.472 0-4.852.341-7.163.872C297.996 339.405 289.438 336 280 336c-7.323 0-14.096 2.112-20 5.548-5.904-3.436-12.677-5.548-20-5.548-14.826 0-27.62 8.159-34.529 20.142A23.882 23.882 0 0 0 192 352c-13.255 0-24 10.745-24 24" fill="#fff"/><path d="M208.667 408S206 386.667 178.5 384.411c-29.243-2.399-26.5-28.512-53.833-48.512-8.73-6.387-30.555-15.87-44.667-39.899-18.5-31.5-48.5-28-79.163-59.797C.336 242.744 0 249.331 0 256c0 56.923 18.603 109.488 50.027 152h158.64z" fill="#86646a"/><path d="M111.75 330.523c1.134-.277 2.098-.59 3.107-.894C104.449 323.136 90.226 313.412 80 296c-17.742-30.209-46.063-28.315-75.4-56.148l-4.255 4.342C.144 248.107 0 252.036 0 256c0 15.179 1.415 30.015 3.95 44.466 18.01-.616 38.507-5.421 43.8-.716 6.75 6 35.25 37.796 64 30.773z" fill="#674447"/><path d="M418.667 384.411c-6.492 11.406-18.435 26.922-39.517 26.922-59 0-83.15 36.667-83.15 36.667h129.237c37.604-33.173 65.415-77.178 78.464-127.178-51.477 5.55-68.018 33.694-85.034 63.589z" fill="#86646a"/><path d="M496.959 342.296c-8.766-1.488-20.656-2.404-27.625-1.63-5.244.583-17.996 6.511-30.695 13.002-7.703 9.367-13.818 19.932-19.973 30.742-3.955 6.949-9.973 15.386-18.809 20.948l-.007.041c17.015 12.644 48.716-13.882 75.725-18.003a254.272 254.272 0 0 0 21.384-45.1z" fill="#674447"/><path d="M115.018 329.741l.01-.003C104.606 323.245 90.28 313.504 80 296c-18.5-31.5-48.5-28-79.163-59.797C.336 242.744 0 249.331 0 256c0 8.189.491 16.256 1.244 24.249C16.743 289.956 34.035 282.687 50 292c16 9.333 34.702 44.149 65.018 37.741z" fill="#52c883"/><path d="M144.917 392.485c-22.414 0-40.583 13.214-40.583 29.515H185.5c0-16.301-18.17-29.515-40.583-29.515z" fill="#674447"/><path d="M259.53 427.5c-15.568 0-28.188 9.178-28.188 20.5h56.375c0-11.322-12.62-20.5-28.187-20.5z" fill="#86646a"/><path d="M231.342 434.783c-10.037 0-18.174 5.918-18.174 13.217h36.348c0-7.3-8.136-13.217-18.174-13.217z" fill="#86646a"/><path d="M95.417 399.424c-13.025 0-23.583 7.679-23.583 17.151H119c0-9.472-10.558-17.151-23.583-17.151zM389.949 433.242c-28.378 0-51.383 16.731-51.383 37.37h56.773c11.534-7.508 22.393-15.93 32.541-25.146-9.396-7.493-22.886-12.224-37.931-12.224z" fill="#674447"/><path d="M418.666 384.411c-3.961 6.959-9.988 15.413-18.846 20.975.012.003.019.01.03.014 23.356 6.357 50.005-40.643 85.608-36.164 7.599-15.352 13.829-31.503 18.242-48.414-51.476 5.55-68.016 33.694-85.034 63.589z" fill="#52c883"/><g><path d="M284.202 79.491h-56.404l-6.027 179.879c17.563-12.802 19.563-126.704 28.896-119.37 9.333 7.333 4 57.821 12 57.821s8.236-77.163 23.451-61.159l-1.916-57.171z" fill="#aee1f9"/></g></svg><svg viewBox="0 0 512 512" width="512" height="512" id="L1VzZXJzL2t1a2tvbWFoL3Byb2plY3RzL2Zyb250ZW5kLWJvb3RzdHJhcC12Mi9zcmMvbW9kdWxlcy9zcHJpdGVzL2ltZy9zcHJpdGUtd2luZG1pbGxzLnN2Zw==" x="512" y="512"><circle cx="256" cy="256" r="256" fill="#8dd9ff"/><path d="M483.958 234.58s-.909-.61-2.301-1.466c-1.384-.873-3.274-1.948-5.156-3.039l-5.25-2.85c-.218-.017-.657.429-.779.26a2.7 2.7 0 0 0-1.216-1.928c-.006-.007-.02-.013-.021-.02-.106-.185.498-.384.579-.588l-.247-5.969c-.151-2.17-.283-4.34-.458-5.967-.156-1.627-.303-2.711-.303-2.711a1.154 1.154 0 0 0-2.287.017s-.13 1.086-.261 2.716c-.149 1.63-.248 3.802-.365 5.974l-.154 5.972c.082.198.641.383.576.565a2.7 2.7 0 0 0-1.234 1.94c-.123.169-.561-.276-.779-.26l-5.25 2.85c-1.882 1.091-3.772 2.166-5.156 3.039-1.392.856-2.301 1.466-2.301 1.466a1.154 1.154 0 0 0 1.023 2.046s1.033-.361 2.554-.961c1.529-.583 3.522-1.451 5.524-2.302l5.43-2.491c.13-.149.088-.626.231-.72.052.032.096.073.15.102l-.578 28.459h-.977l-.652 20.607h6.956l-.652-20.607h-.977l-.578-28.459c.054-.029.099-.07.15-.102.142.094.101.571.231.72l5.43 2.491c2.002.851 3.996 1.718 5.524 2.302 1.521.6 2.554.961 2.554.961a1.153 1.153 0 0 0 1.02-2.047zM414.34 254.426s-.73-.49-1.849-1.177c-1.112-.701-2.63-1.565-4.142-2.441l-4.218-2.289c-.175-.013-.528.344-.626.209a2.17 2.17 0 0 0-.977-1.549s-.016-.011-.017-.016c-.085-.148.4-.309.465-.473l-.198-4.795c-.121-1.743-.228-3.486-.368-4.793-.125-1.307-.244-2.178-.244-2.178a.926.926 0 0 0-1.838.015s-.105.873-.21 2.182c-.12 1.309-.199 3.054-.293 4.799l-.124 4.797c.066.159.515.308.463.454a2.171 2.171 0 0 0-.992 1.558c-.098.136-.451-.222-.626-.209l-4.218 2.289c-1.512.876-3.03 1.74-4.142 2.441a64.014 64.014 0 0 0-1.849 1.177.927.927 0 0 0 .822 1.643s.83-.29 2.051-.772c1.228-.469 2.83-1.165 4.438-1.849l4.362-2.001c.105-.12.071-.503.186-.578.042.026.077.059.121.082l-.464 22.861h-.785l-.524 16.554h5.588l-.524-16.554h-.785l-.464-22.861c.044-.023.079-.056.121-.082.114.075.081.459.186.578l4.362 2.001c1.608.684 3.21 1.38 4.438 1.849 1.221.482 2.051.772 2.051.772a.926.926 0 0 0 .823-1.644zM346.529 270.347s-.521-.35-1.32-.84c-.794-.501-1.878-1.117-2.957-1.742l-3.011-1.634c-.125-.01-.377.246-.447.149a1.547 1.547 0 0 0-.697-1.105c-.003-.004-.011-.008-.012-.011-.061-.106.285-.22.332-.337l-.142-3.423c-.087-1.244-.162-2.488-.263-3.421a42.57 42.57 0 0 0-.174-1.555.66.66 0 0 0-1.311.01s-.075.623-.15 1.557c-.086.935-.142 2.18-.209 3.425l-.088 3.424c.047.113.367.22.33.324a1.549 1.549 0 0 0-.708 1.112c-.07.097-.322-.158-.447-.149l-3.011 1.634c-1.079.625-2.163 1.242-2.957 1.742-.798.491-1.32.84-1.32.84a.661.661 0 0 0 .586 1.173s.592-.207 1.464-.551c.877-.335 2.02-.832 3.168-1.32l3.114-1.428c.075-.085.05-.359.132-.413.03.018.055.042.086.058l-.331 16.318h-.56L335.255 296h3.988l-.374-11.816h-.56l-.331-16.318c.031-.017.057-.04.086-.058.081.054.058.327.132.413l3.114 1.428c1.148.488 2.291.985 3.168 1.32.872.344 1.464.551 1.464.551a.66.66 0 0 0 .587-1.173z" fill="#fff"/><path d="M174.894 256.664s-.521-.35-1.32-.84c-.794-.501-1.878-1.117-2.957-1.742l-3.011-1.634c-.125-.01-.377.246-.447.149a1.547 1.547 0 0 0-.697-1.105c-.003-.004-.011-.008-.011-.008-.062-.11.284-.224.331-.341l-.142-3.423c-.087-1.244-.162-2.488-.263-3.421a42.57 42.57 0 0 0-.174-1.555.66.66 0 0 0-1.311.01s-.075.623-.15 1.557c-.086.935-.142 2.18-.209 3.425l-.088 3.424c.047.113.367.22.33.324a1.549 1.549 0 0 0-.708 1.112c-.07.097-.322-.158-.447-.149l-3.011 1.634c-1.079.625-2.163 1.242-2.957 1.742-.798.491-1.32.84-1.32.84a.661.661 0 0 0 .586 1.173s.592-.207 1.464-.551c.877-.335 2.02-.832 3.168-1.32l3.114-1.428c.075-.085.05-.359.132-.413.03.018.055.042.086.058l-.331 16.318h-.56l-.374 11.816h3.988l-.374-11.816h-.56l-.331-16.318c.031-.017.057-.04.086-.058.081.054.058.327.132.413l3.114 1.428c1.148.488 2.291.985 3.168 1.32.872.344 1.464.551 1.464.551a.66.66 0 0 0 .842-.406.656.656 0 0 0-.252-.766zM216.761 269.153s-.521-.35-1.32-.84c-.794-.501-1.877-1.117-2.957-1.742l-3.011-1.634c-.125-.01-.377.246-.447.149a1.547 1.547 0 0 0-.697-1.105c-.003-.004-.011-.008-.012-.011-.061-.106.285-.22.332-.337l-.142-3.423c-.087-1.244-.162-2.488-.263-3.421a42.57 42.57 0 0 0-.174-1.555.66.66 0 0 0-1.311.01s-.075.623-.15 1.557c-.086.935-.142 2.18-.209 3.425l-.088 3.424c.047.113.367.22.33.324a1.549 1.549 0 0 0-.708 1.112c-.07.097-.322-.158-.447-.149l-3.011 1.634c-1.079.625-2.163 1.242-2.957 1.742-.798.491-1.32.84-1.32.84a.661.661 0 0 0 .586 1.173s.592-.207 1.464-.551c.877-.335 2.02-.832 3.168-1.32l3.114-1.428c.075-.085.05-.359.132-.413.03.018.055.042.086.058l-.331 16.318h-.56l-.374 11.816h3.988l-.374-11.816h-.56l-.331-16.318c.031-.017.057-.04.086-.058.081.054.058.327.132.413l3.114 1.428c1.148.488 2.291.985 3.168 1.32.872.344 1.464.551 1.464.551a.66.66 0 0 0 .842-.406.655.655 0 0 0-.252-.767z" fill="#74ff9e"/><path d="M216.761 270.347s-.521-.35-1.32-.84c-.794-.501-1.878-1.117-2.957-1.742l-3.011-1.634c-.125-.01-.377.246-.447.149a1.547 1.547 0 0 0-.697-1.105c-.003-.004-.011-.008-.012-.011-.061-.106.285-.22.332-.337l-.142-3.423c-.087-1.244-.162-2.488-.263-3.421a42.57 42.57 0 0 0-.174-1.555.66.66 0 0 0-1.311.01s-.075.623-.15 1.557c-.086.935-.142 2.18-.209 3.425l-.088 3.424c.047.113.367.22.33.324a1.549 1.549 0 0 0-.708 1.112c-.07.097-.322-.158-.447-.149l-3.011 1.634c-1.079.625-2.163 1.242-2.957 1.742-.798.491-1.32.84-1.32.84a.661.661 0 0 0 .586 1.173s.592-.207 1.464-.551c.877-.335 2.02-.832 3.168-1.32l3.114-1.428c.075-.085.05-.359.132-.413.03.018.055.042.086.058l-.331 16.318h-.56L205.487 296h3.988l-.374-11.816h-.56l-.331-16.318c.031-.017.057-.04.086-.058.081.054.058.327.132.413l3.114 1.428c1.148.488 2.291.985 3.168 1.32.872.344 1.464.551 1.464.551a.66.66 0 0 0 .587-1.173zM70.897 227.255s-.687-.461-1.739-1.107c-1.046-.66-2.474-1.472-3.896-2.296l-3.967-2.153c-.165-.013-.496.324-.589.196a2.037 2.037 0 0 0-.919-1.456c-.004-.005-.015-.01-.016-.015-.08-.139.376-.29.438-.445l-.187-4.51c-.114-1.639-.214-3.279-.346-4.508-.118-1.23-.229-2.049-.229-2.049a.871.871 0 0 0-1.728.014s-.098.821-.197 2.052c-.113 1.231-.187 2.872-.276 4.513l-.117 4.512c.062.149.484.29.435.427-.506.324-.85.843-.933 1.466-.093.128-.424-.209-.589-.196l-3.967 2.153c-1.422.824-2.85 1.636-3.896 2.296a59.113 59.113 0 0 0-1.739 1.107.873.873 0 0 0 .773 1.546s.781-.273 1.929-.726c1.155-.441 2.661-1.096 4.174-1.739l4.103-1.882c.098-.113.066-.473.174-.544.039.024.073.055.114.077l-.436 21.501h-.738l-.493 15.569h5.255l-.493-15.569h-.738l-.436-21.501c.041-.022.075-.053.114-.077.107.071.076.431.174.544l4.103 1.882c1.512.643 3.019 1.298 4.174 1.739 1.149.453 1.929.726 1.929.726a.871.871 0 1 0 .775-1.547zM125.933 245.623s-.567-.381-1.436-.915c-.864-.545-2.043-1.215-3.217-1.896l-3.276-1.778c-.136-.01-.41.268-.486.162a1.686 1.686 0 0 0-.759-1.203c-.004-.004-.012-.008-.012-.008-.067-.119.31-.244.36-.371l-.154-3.725c-.094-1.354-.177-2.708-.286-3.723-.097-1.015-.189-1.692-.189-1.692a.719.719 0 0 0-1.427.011s-.081.678-.163 1.695c-.093 1.017-.155 2.372-.228 3.727l-.096 3.726c.051.123.4.239.36.352a1.684 1.684 0 0 0-.77 1.21c-.076.105-.35-.172-.486-.162l-3.276 1.778c-1.174.681-2.354 1.351-3.217 1.896-.869.534-1.436.915-1.436.915a.72.72 0 0 0 .638 1.276s.645-.225 1.593-.6c.954-.364 2.198-.905 3.447-1.436l3.388-1.554c.081-.093.055-.391.144-.449.032.02.06.046.094.063l-.36 17.757h-.61l-.407 12.858h4.34l-.407-12.858h-.61l-.36-17.757c.034-.018.062-.044.094-.063.089.059.063.356.144.449l3.388 1.554c1.249.531 2.493 1.072 3.447 1.436.949.374 1.593.6 1.593.6a.719.719 0 0 0 .638-1.275z" fill="#74ff9e"/><path d="M220.4 397.693L320 296C212.804 296 151.297 249.324.201 248.06.12 250.703 0 253.337 0 256c0 49.319 13.98 95.358 38.145 134.434 52.827 2.363 182.255 7.259 182.255 7.259z" fill="#53dc92"/><path d="M.201 248.06c-.005.155-.007.311-.012.466 136.875 9.013 169.893 52 231.811 60.839 0 0 44 5.635 72 2.971L320 296C212.804 296 151.297 249.324.201 248.06z" fill="#74ff9e"/><path d="M365.952 487.223c81.798-38.967 139.62-120.05 145.499-215.209-139.652.151-330.258 58.971-471.33 58.971.001 0 269.626 131.938 325.831 156.238z" fill="#52c883"/><path d="M58 334.185c35.36 13.495 288.64-29.409 449.598-31.593 1.843-10.014 3.212-20.193 3.854-30.579-132.449.144-310.653 52.967-449.041 58.426L58 334.185z" fill="#6bee97"/><path d="M141.747 201.017l-.698-16.83c-.425-6.118-.799-12.237-1.292-16.825-.439-4.588-.855-7.645-.855-7.645a3.25 3.25 0 0 0-6.449.05s-.368 3.064-.736 7.658c-.421 4.595-.7 10.718-1.03 16.843l-.436 16.838c.239.572 1.95 1.109 1.658 1.634-.007.04-.091.078-.121.117 2.843-.285 5.716-.307 8.566.047-.095-.076-.227-.151-.242-.228-.297-.521 1.405-1.084 1.635-1.659z" fill="#fff"/><path fill="#fffce5" d="M141.243 297.686h-10.486l1.748-86.051h6.99z"/><path fill="#e9dcb8" d="M145.806 354.317h-19.612l1.838-58.102h15.936z"/><path d="M128.459 208.009c-.022.044-.018.137-.05.161-.336.499-1.591-.782-2.209-.735l-14.804 8.035c-5.306 3.076-10.636 6.105-14.538 8.567-3.926 2.414-6.488 4.133-6.488 4.133a3.25 3.25 0 0 0 2.884 5.768s2.913-1.019 7.2-2.711c4.311-1.644 9.932-4.09 15.576-6.49l15.311-7.022c.408-.466.137-2.239.737-2.208.076-.022.203.062.313.112-1.609-2.377-2.895-4.948-3.932-7.61zM143.541 208.009c.022.044.018.137.05.161.336.499 1.591-.782 2.209-.735l14.804 8.035c5.306 3.076 10.636 6.105 14.538 8.567a214.705 214.705 0 0 1 6.488 4.133 3.25 3.25 0 0 1-2.884 5.768s-2.913-1.019-7.2-2.711c-4.311-1.644-9.932-4.09-15.576-6.49l-15.311-7.022c-.408-.466-.137-2.239-.737-2.208-.076-.022-.203.062-.313.112 1.609-2.377 2.895-4.948 3.932-7.61z" fill="#fff"/><circle cx="136" cy="209.154" r="7.801" fill="#e9dcb8"/><path d="M256 512c68.661 0 130.958-27.083 176.932-71.083-130.747-3.993-314.506-116.498-425.064-121.77C35.991 429.99 136.41 512 256 512z" fill="#43ab5f"/><path d="M432.932 440.917c-130.747-3.993-314.506-116.498-425.064-121.77 107.959 8.741 244.774 129.851 358.007 168.05a256.968 256.968 0 0 0 67.057-46.28z" fill="#34be69"/><path d="M263.814 166.563l-.948-22.883c-.578-8.319-1.086-16.638-1.756-22.876-.597-6.238-1.162-10.395-1.162-10.395a4.42 4.42 0 0 0-8.769.068s-.5 4.166-1 10.412c-.573 6.247-.952 14.573-1.4 22.9l-.592 22.894c.324.778 2.651 1.508 2.254 2.222-.01.054-.124.106-.164.16 3.866-.387 7.772-.417 11.647.064-.129-.103-.309-.205-.33-.31-.407-.707 1.907-1.473 2.22-2.256z" fill="#fff"/><path fill="#fffce5" d="M263.129 298h-14.258l2.377-117h9.504z"/><path fill="#e9dcb8" d="M269.333 375h-26.666l2.5-79h21.666z"/><path d="M245.746 176.071c-.029.06-.024.186-.067.219-.457.678-2.163-1.063-3.004-.999l-20.128 10.925c-7.215 4.182-14.461 8.301-19.767 11.648-5.338 3.283-8.822 5.62-8.822 5.62a4.42 4.42 0 0 0 3.922 7.843s3.96-1.385 9.789-3.686c5.861-2.236 13.504-5.561 21.178-8.824l20.817-9.547c.555-.634.186-3.044 1.002-3.003.103-.029.276.085.426.153-2.187-3.235-3.935-6.73-5.346-10.349zM266.254 176.071c.029.06.024.186.067.219.457.678 2.163-1.063 3.004-.999l20.128 10.925c7.215 4.182 14.461 8.301 19.767 11.648 5.338 3.283 8.822 5.62 8.822 5.62a4.42 4.42 0 0 1-3.922 7.843s-3.96-1.385-9.789-3.686c-5.861-2.236-13.504-5.561-21.178-8.824l-20.817-9.547c-.555-.634-.186-3.044-1.002-3.003-.103-.029-.276.085-.426.153 2.187-3.235 3.935-6.73 5.346-10.349z" fill="#fff"/><circle cx="256" cy="177.627" r="10.607" fill="#e9dcb8"/><path d="M381.747 201.017l-.698-16.83c-.425-6.118-.799-12.237-1.292-16.825-.439-4.588-.855-7.645-.855-7.645a3.25 3.25 0 0 0-6.449.05s-.368 3.064-.736 7.658c-.421 4.595-.7 10.718-1.03 16.843l-.436 16.838c.239.572 1.95 1.109 1.658 1.634-.007.04-.091.078-.121.117 2.843-.285 5.716-.307 8.566.047-.095-.076-.227-.151-.242-.228-.297-.521 1.405-1.084 1.635-1.659z" fill="#fff"/><path fill="#fffce5" d="M381.243 297.686h-10.486l1.748-86.051h6.99z"/><path fill="#e9dcb8" d="M385.806 354.317h-19.612l1.838-58.102h15.936z"/><path d="M368.459 208.009c-.022.044-.018.137-.05.161-.336.499-1.591-.782-2.209-.735l-14.804 8.035c-5.306 3.076-10.636 6.105-14.538 8.567-3.926 2.414-6.488 4.133-6.488 4.133a3.25 3.25 0 0 0 2.884 5.768s2.913-1.019 7.2-2.711c4.311-1.644 9.932-4.09 15.576-6.49l15.311-7.022c.408-.466.137-2.239.737-2.208.076-.022.203.062.313.112-1.609-2.377-2.895-4.948-3.932-7.61zM383.541 208.009c.022.044.018.137.05.161.336.499 1.591-.782 2.209-.735l14.804 8.035c5.306 3.076 10.636 6.105 14.538 8.567a214.705 214.705 0 0 1 6.488 4.133 3.25 3.25 0 0 1-2.884 5.768s-2.913-1.019-7.2-2.711c-4.311-1.644-9.932-4.09-15.576-6.49l-15.311-7.022c-.408-.466-.137-2.239-.737-2.208-.076-.022-.203.062-.313.112 1.609-2.377 2.895-4.948 3.932-7.61z" fill="#fff"/><circle cx="376" cy="209.154" r="7.801" fill="#e9dcb8"/><circle cx="66.667" cy="369.435" r="6.667" fill="#34be69"/><circle cx="156.042" cy="456.052" r="6.667" fill="#34be69"/><g><circle cx="256" cy="476.667" r="6.667" fill="#34be69"/></g><g><circle cx="145.806" cy="407.986" r="6.667" fill="#34be69"/></g><g><circle cx="98.752" cy="397.693" r="6.667" fill="#52c883"/></g><g><circle cx="118.752" cy="442" r="6.667" fill="#52c883"/></g><g><circle cx="194.148" cy="435.333" r="6.667" fill="#52c883"/></g><g><circle cx="357.327" cy="451.667" r="6.667" fill="#52c883"/></g><g><circle cx="282.453" cy="427.986" r="6.667" fill="#52c883"/></g><g><circle cx="315.333" cy="445" r="6.667" fill="#43ab5f"/></g><g><circle cx="207.482" cy="473.863" r="6.667" fill="#52c883"/></g><g opacity=".6"><path d="M289.193 67.987c-2.09 0-4.064.411-5.957 1.008C277.24 60.376 267.295 54.71 256 54.71s-21.24 5.667-27.236 14.285c-1.893-.597-3.868-1.008-5.957-1.008-10.999 0-19.916 8.917-19.916 19.916h106.218c0-11-8.917-19.916-19.916-19.916z" fill="#fff"/></g><g opacity=".6"><path d="M123.661 150.792c-1.295 0-2.518.255-3.691.625-3.715-5.34-9.876-8.85-16.874-8.85-6.997 0-13.159 3.511-16.874 8.85-1.173-.37-2.396-.625-3.691-.625-6.814 0-12.339 5.524-12.339 12.339H136c0-6.815-5.524-12.339-12.339-12.339z" fill="#fff"/></g><g><path d="M337.356 152.718c-1.093 0-2.125.215-3.115.527-3.135-4.506-8.335-7.469-14.241-7.469s-11.106 2.963-14.241 7.469c-.99-.312-2.022-.527-3.115-.527-5.751 0-10.413 4.662-10.413 10.413h55.538c0-5.751-4.662-10.413-10.413-10.413z" fill="#fff"/></g><g><path d="M121.509 108.548c0-15.963 12.941-28.903 28.903-28.903 2.409 0 4.713.381 6.95.936 7.542-8.145 18.235-13.324 30.211-13.324 22.804 0 41.29 18.486 41.29 41.29H121.509z" fill="#fff"/></g><g opacity=".6"><path d="M165.614 177.164c0-6.212 5.036-11.248 11.248-11.248.938 0 1.834.148 2.705.364 2.935-3.17 7.096-5.185 11.757-5.185 8.874 0 16.068 7.194 16.068 16.068h-41.778z" fill="#fff"/></g><g opacity=".6"><path d="M392.372 121.275c-9.158 0-16.582 7.424-16.582 16.582h61.591c0-13.083-10.606-23.689-23.689-23.689-2.869 0-5.562.621-8.095 1.564-1.587-3.392-4.977-5.777-8.97-5.777-1.044 0-2.032.206-2.979.504-2.998-4.31-7.971-7.143-13.618-7.143s-10.621 2.833-13.618 7.143c-.946-.298-1.934-.504-2.979-.504-5.5 0-9.958 4.458-9.958 9.958H398.5c-.727.62-1.492 1.198-2.141 1.899-1.283-.319-2.604-.537-3.987-.537z" fill="#fff"/></g></svg><svg viewBox="0 0 512 512" width="512" height="512" id="L1VzZXJzL2t1a2tvbWFoL3Byb2plY3RzL2Zyb250ZW5kLWJvb3RzdHJhcC12Mi9zcmMvbW9kdWxlcy9zcHJpdGVzL2ltZy9zcHJpdGUtdHJlZXMuc3Zn" x="1024"><circle cx="256" cy="256" r="256" fill="#9af4ef"/><path d="M491.532 155.579c-8.513.899-15.987 5.164-20.941 11.616-1.85-.44-3.754-.734-5.739-.734-3.865 0-7.478.961-10.739 2.539-4.063-8.146-12.392-13.793-22.113-13.793-6.671 0-12.699 2.666-17.155 6.951-2.42-.789-4.956-1.324-7.639-1.324-3.692 0-7.164.86-10.313 2.308-4.526-4.854-10.927-7.935-18.087-7.935-4.814 0-9.269 1.431-13.072 3.805-4.541-5.084-11.075-8.348-18.428-8.348-13.694 0-24.794 11.101-24.794 24.794s11.101 24.794 24.794 24.794c4.813 0 9.269-1.431 13.072-3.805 4.541 5.084 11.075 8.348 18.428 8.348 3.692 0 7.164-.86 10.313-2.308 4.526 4.854 17.721 26.886 24.882 26.886 6.671 0 5.905-21.617 10.361-25.902 2.42.789 4.956 1.324 7.639 1.324 3.865 0 7.478-.961 10.739-2.539 4.063 8.146 12.392 13.794 22.113 13.794 5.263 0 10.123-1.664 14.137-4.46 4.586 2.772 9.904 4.46 15.654 4.46 4.929 0 9.517-1.283 13.634-3.364-3.396-19.909-9.036-39.049-16.746-57.107zM170.152 150.663c-6.635 0-12.628 2.643-17.078 6.887-4.45-4.244-10.443-6.887-17.078-6.887-5.704 0-10.893 2.003-15.082 5.24-4.189-3.237-9.378-5.24-15.082-5.24-7.825 0-14.718 3.697-19.262 9.358-2.188-.631-4.453-1.077-6.843-1.077-3.833 0-7.419.943-10.659 2.496-4.635-4.24-10.75-6.891-17.527-6.891-7.208 0-13.729 2.928-18.447 7.658-3.99-2.019-8.435-3.263-13.212-3.263-.281 0-.541.075-.819.083a254.114 254.114 0 0 0-15.389 53.928c4.652 3.076 10.213 4.89 16.208 4.89 9.92 0 27.125 7.517 32.46 0 2.44.756 4.249-4.345 6.938-4.345 4.718 0 1.342-8.185 5.159-10.377 4.223 3.336 9.488 5.41 15.288 5.41 7.825 0 14.718-3.696 19.262-9.358 2.188.631 4.452 1.077 6.843 1.077 5.704 0 10.893-2.003 15.082-5.24 4.189 3.237 9.378 5.24 15.082 5.24 6.635 0 12.627-2.643 17.077-6.887 4.45 4.244 10.443 6.887 17.078 6.887 13.694 0 24.794-11.101 24.794-24.794.001-13.695-11.099-24.795-24.793-24.795z" fill="#00c8b4"/><path d="M.029 257.143C.648 397.999 114.999 512 256 512s255.352-114.001 255.971-254.857H.029z" fill="#52c883"/><path d="M37.069 388.687C96.667 384.571 176.618 435.5 248 435.5c141.801 0 160.667-52.846 230.422-52.846 21.138-37.049 33.349-79.85 33.549-125.512H.029c.211 48.15 13.727 93.152 37.04 131.545z" fill="#34be71"/><path d="M28.426 373.221c60.968-2.547 173.453-8.104 257.712 4.383 71.333 10.571 151.195.112 202.046-14.107 15.031-32.376 23.62-68.347 23.787-106.354H.029c.183 41.829 10.431 81.269 28.397 116.078z" fill="#00a07d"/><path d="M12.364 334.461c38.969 20.959 103.28 26.923 179.636 18.93 83.333-8.724 167.366-10.177 228.016-5.45 33.474 2.608 58.983.861 75.167-1.227 10.627-27.868 16.649-58 16.788-89.571H.029a255.208 255.208 0 0 0 12.335 77.318z" fill="#00827e"/><path d="M492.365 354.321c3.1-7.444 5.867-15.06 8.264-22.84l-3.408-74.338h-2.717l-2.139 97.178zM24.453 365.156l-4.752-103.645h-2.64l-1.796 81.593a254.388 254.388 0 0 0 9.188 22.052z" fill="#4f6e6e"/><path d="M488.273 188.542c-8.368 0-16.07 10.438-22.313 24.182-2.398 14.075-3.716 28.518-3.716 43.276 0 16.324 1.593 32.268 4.514 47.743 6.1 4.283 13.495 6.841 21.515 6.841 6.94 0 13.359-2.013 18.937-5.296C510.323 289.334 512 272.866 512 256a257.14 257.14 0 0 0-5.003-50.482c-5.516-10.007-11.897-16.976-18.724-16.976zM4.514 303.743c6.1 4.283 13.495 6.841 21.515 6.841 20.739 0 37.552-16.813 37.552-37.551 0-20.739-16.813-84.491-37.552-84.491-8.368 0-16.07 10.438-22.313 24.182C1.318 226.799 0 241.242 0 256c0 16.324 1.593 32.268 4.514 47.743z" fill="#00a07d"/><path fill="#00827e" d="M246.826 364.283h-10.152l2.436-110.712h2.64zM216.576 366.712h-10.152L208.86 256h2.64zM280.334 364.283h-8.696l2.087-94.831h2.261zM266.911 358.771h-8.696l2.087-94.831h2.261zM323.759 364.283h-8.696l2.087-94.831h2.261zM411.501 360.558h-8.695l2.087-94.831h2.26zM456.441 358.771h-8.696l2.087-94.831h2.261zM476.441 356.342h-8.696l2.087-94.831h2.261zM63.63 361.762h-8.696l2.087-94.831h2.261zM36.973 360.558h-8.696l2.087-94.831h2.261zM195.571 364.283h-10.152l2.436-110.712h2.64zM160.879 364.283h-10.152l2.436-110.712h2.64zM135.997 364.283h-10.152l2.436-110.712h2.64zM100.177 362.689H90.025l2.437-110.712h2.639z"/><path fill="#4f6e6e" d="M286.138 377.604h-10.152l2.437-110.711h2.639zM309.873 375.586h-10.152l2.436-110.711h2.64zM347.305 375.586h-10.152l2.437-110.711h2.639zM378.805 373.495h-10.152l2.437-110.712h2.639zM417.305 369.702h-10.152l2.437-110.712h2.639zM462.245 364.238h-10.152l2.436-110.712h2.64zM482.245 368.499h-10.152l2.436-110.712h2.64zM73.732 373.495H63.58l2.437-110.712h2.639zM42.777 375.586H32.625l2.437-110.711h2.639z"/><path fill="#6c5f59" d="M190.495 397.915h-13.877l3.33-151.333h3.608zM232.863 397.915h-13.877l3.331-151.333h3.607zM294.939 396.648h-13.877l3.331-151.333h3.608zM333.288 396.648h-13.877l3.33-151.333h3.608zM400.767 397.915H386.89l3.331-151.333h3.608zM438.938 393.439h-13.876l3.33-151.334H432zM130.921 388.81h-13.877l3.33-151.334h3.608z"/><path fill="#4f6e6e" d="M107.116 375.586H96.964L99.4 264.875h2.64zM170.152 376.337H160l2.436-110.711h2.64zM211.5 377.604h-10.152l2.437-110.711h2.639zM253.076 377.604h-10.152l2.436-110.711H248z"/><path fill="#6c5f59" d="M59.282 390.013H45.405l3.33-151.334h3.608z"/><path d="M489.016 295.785c0 27.439-22.243 49.682-49.682 49.682s-49.682-22.243-49.682-49.682S411.895 184 439.334 184s49.682 84.346 49.682 111.785z" fill="#34be71"/><path fill="#805f59" d="M436.758 307.333l-2.369 100h14.586l-4.935-100z"/><path fill="#805f59" d="M439.334 322.409l22.784-18.532 2.734 5.005-25.518 22.785z"/><path d="M439.333 184c-6.852 0-13.379 5.261-19.317 13.58 1.822-.743 3.671-1.171 5.547-1.171 27.438 0 49.682 84.346 49.682 111.785 0 11.295-3.813 21.675-10.162 30.021 14.33-8.716 23.933-24.431 23.933-42.43 0-27.439-22.244-111.785-49.683-111.785z" fill="#52c883"/><path d="M130.921 291.518c0 28.488-23.094 51.583-51.583 51.583s-51.583-23.094-51.583-51.583S50.85 175.457 79.338 175.457s51.583 87.573 51.583 116.061z" fill="#34be71"/><path fill="#805f59" d="M76.664 303.508l-2.46 103.825h15.145l-5.125-103.825z"/><path fill="#805f59" d="M79.338 319.16l23.656-19.24 2.839 5.196-26.495 23.656z"/><path d="M79.338 175.457c-7.114 0-13.891 5.462-20.056 14.1 1.891-.772 3.811-1.216 5.759-1.216 28.488 0 51.583 87.573 51.583 116.061 0 11.727-3.959 22.504-10.551 31.169 14.878-9.05 24.848-25.366 24.848-44.053 0-28.488-23.094-116.061-51.583-116.061z" fill="#52c883"/><path d="M219.536 97.841c-2.989 0-5.813.588-8.52 1.442-8.575-12.327-22.8-20.431-38.954-20.431s-30.379 8.104-38.954 20.431c-2.707-.854-5.531-1.442-8.52-1.442-15.731 0-28.484 12.753-28.484 28.484H248.02c0-15.731-12.753-28.484-28.484-28.484z" fill="#fff"/><path d="M360.683 109.351c-1.901 0-3.698.374-5.421.917-5.456-7.843-14.506-12.999-24.784-12.999-10.278 0-19.328 5.156-24.783 12.999-1.722-.543-3.519-.917-5.421-.917-10.009 0-18.122 8.114-18.122 18.122h96.653c0-10.008-8.113-18.122-18.122-18.122z" fill="#fff" opacity=".6"/><g><path d="M301.218 238.964c-.766-3.075-1.217-6.276-1.217-9.591 0-21.717 17.461-39.323 39-39.323 2.262 0 4.465.236 6.621.609C352.441 186.462 360.426 184 369 184c24.853 0 45 20.314 45 45.372 0 1.124-.087 2.227-.167 3.33C425.101 245.516 432 262.323 432 280.795c0 40.093-32.235 72.596-72 72.596s-72-32.503-72-72.596c.001-15.592 4.921-30.001 13.218-41.831z" fill="#00a07d"/><path fill="#805f59" d="M366.554 407.333h-12.603l3.024-127.673h3.277z"/><path fill="#805f59" d="M358.11 328.922l-28.358-23.065-3.403 1.891 31.761 28.358zM360 300.983l-19.242-15.651-2.31 1.283L360 305.857zM360 316.822l28.358-23.064 3.403 1.891L360 324.006z"/><g><path d="M413.833 232.703c.08-1.104.167-2.206.167-3.33C414 204.314 393.853 184 369 184c-8.574 0-16.559 2.461-23.379 6.658-2.156-.373-4.359-.609-6.621-.609-11.646 0-21.982 5.252-29.128 13.413 4.12-1.493 8.498-2.448 13.127-2.448 2.262 0 4.465.236 6.621.608 6.82-4.196 14.805-6.658 23.379-6.658 24.853 0 45 20.314 45 45.373 0 1.125-.086 2.227-.167 3.33C409.101 256.48 416 273.288 416 291.759c0 21.468-9.297 40.699-23.988 53.99C415.691 333.86 432 309.277 432 280.794c0-18.471-6.898-35.278-18.167-48.091z" fill="#36b294"/></g></g><g><path d="M213.844 221.952c.85-3.386 1.351-6.911 1.351-10.56 0-23.912-19.384-43.296-43.296-43.296-2.511 0-4.957.26-7.35.67-7.571-4.62-16.436-7.331-25.954-7.331-27.59 0-49.957 22.366-49.957 49.957 0 1.238.096 2.451.185 3.667-12.509 14.108-20.168 32.613-20.168 52.951 0 44.144 35.786 79.931 79.931 79.931s79.931-35.786 79.931-79.931c0-17.167-5.462-33.032-14.673-46.058z" fill="#00a07d"/><path d="M213.844 221.952c.85-3.386 1.351-6.911 1.351-10.56 0-23.912-19.384-43.296-43.296-43.296-2.511 0-4.957.26-7.35.67-7.571-4.62-16.436-7.331-25.954-7.331-20.527 0-38.144 12.39-45.829 30.091 8.899-10.253 22.045-16.769 36.748-16.769 9.246 0 17.856 2.614 25.21 7.069 2.325-.396 4.701-.646 7.14-.646 23.227 0 42.056 18.692 42.056 41.749 0 3.519-.487 6.918-1.313 10.183 8.947 12.56 14.253 27.858 14.253 44.412 0 24.358-11.411 46.041-29.183 60.166 24.358-13.696 40.84-39.747 40.84-69.681 0-17.166-5.462-33.031-14.673-46.057z" fill="#36b294"/><path fill="#805f59" d="M155.803 407.333h-13.877L145.256 256h3.608z"/><path fill="#805f59" d="M146.505 314.339l-31.223-25.395-3.746 2.082 34.969 31.222zM148.587 301.017l31.223-25.395 3.746 2.082-34.969 31.223z"/></g><g><path d="M334.377 184.683c1.021-4.066 1.623-8.3 1.623-12.683 0-28.719-23.281-52-52-52-3.016 0-5.953.312-8.828.805-9.093-5.55-19.74-8.805-31.172-8.805-33.137 0-60 26.863-60 60 0 1.487.116 2.944.222 4.404C169.198 193.348 160 215.574 160 240c0 53.019 42.98 96 96 96s96-42.981 96-96c0-20.619-6.56-39.672-17.623-55.317z" fill="#34be71"/><path d="M334.377 184.683c1.021-4.066 1.623-8.3 1.623-12.683 0-28.719-23.281-52-52-52-3.016 0-5.953.312-8.828.805-9.093-5.55-19.74-8.805-31.172-8.805-24.654 0-45.813 14.881-55.042 36.141C199.646 135.827 215.436 128 233.094 128c11.104 0 21.446 3.139 30.279 8.49 2.793-.475 5.646-.776 8.575-.776 27.896 0 50.511 22.45 50.511 50.143 0 4.227-.584 8.309-1.577 12.23C331.628 213.173 338 231.546 338 251.428c0 29.255-13.706 55.297-35.05 72.262C332.205 307.241 352 275.952 352 240c0-20.619-6.56-39.672-17.623-55.317zM175.028 190.104c-.032-.439-.037-.885-.067-1.325-1.025 1.613-1.969 3.277-2.899 4.952.981-1.215 1.926-2.462 2.966-3.627z" fill="#52c883"/><g><path fill="#805f59" d="M264.667 407.333H248l4-168.833h4.333z"/><path fill="#805f59" d="M253.5 303.643l-37.5-30.5-4.5 2.5 42 37.5zM256 266.696L230.554 246l-3.054 1.696 28.5 25.447zM256 287.643l37.5-30.5 4.5 2.5-42 37.5z"/></g></g><g opacity=".6"><path d="M206.559 66.155c0-11.096 8.995-20.091 20.091-20.091 1.675 0 3.276.265 4.831.651 5.242-5.661 12.675-9.261 21-9.261 15.851 0 28.701 12.85 28.701 28.701h-74.623z" fill="#fff"/></g><g><path d="M309.871 70.155c0-6.724-5.443-12.175-12.157-12.175-1.013 0-1.982.161-2.923.394-3.172-3.431-7.67-5.613-12.708-5.613-9.592 0-17.368 7.787-17.368 17.393h45.156z" fill="#fff"/></g><g><path d="M360 97.269c0-7.801 6.315-14.125 14.104-14.125 1.176 0 2.3.186 3.391.458 3.68-3.98 8.898-6.511 14.742-6.511 11.128 0 20.148 9.034 20.148 20.178H360z" fill="#fff"/></g></svg><svg viewBox="0 0 512 512" width="512" height="512" id="L1VzZXJzL2t1a2tvbWFoL3Byb2plY3RzL2Zyb250ZW5kLWJvb3RzdHJhcC12Mi9zcmMvbW9kdWxlcy9zcHJpdGVzL2ltZy9zcHJpdGUtdmlsbGFnZS5zdmc=" x="1024" y="512"><path d="M511.959 256c2.506 141.385-110.059 256-251.421 256S2.547 397.385.041 256 110.1 0 251.462 0s257.991 114.615 260.497 256z" fill="#fff9bb"/><path d="M478.048 248h-18.955v-27.75H312.866l-22.467-22.125L256 232H118.405v-24H62.173v13.789H45.75l-14.617-14.395-27.674 27.252 97.683 26.02 206.393 26.211 203.798-8.681c.499-7.322.759-14.712.626-22.197-.121-6.837-.589-13.59-1.234-20.292h-32.677V248z" fill="#ffeb97"/><path d="M20.42 352h89.354v-88H.385c1.506 31.045 8.493 60.689 20.035 88z" fill="#fad2a3"/><path d="M1.084 273.871h92.442v-9.75H.394c.16 3.268.41 6.513.69 9.75z" fill="#ff8562" opacity=".25"/><path fill="#fff4db" d="M109.773 184h148.92v168h-148.92z"/><path fill="#f26e64" d="M109.773 184h148.92v32h-148.92z"/><path d="M510.396 288.627h-79.568V352h64.155c7.742-19.995 12.988-41.239 15.413-63.373z" fill="#fff4db"/><path fill="#fad2a3" d="M301.865 224h128.964v128H301.865z"/><path fill="#ff8562" d="M301.865 224h128.964v9.75H301.865z" opacity=".25"/><path fill="#fffcec" d="M199.134 264h113.732v88H199.134z"/><path d="M52.754 408c47.738 63.078 123.336 104 207.783 104 84.448 0 158.595-40.922 204.096-104H52.754z" fill="#e8a271"/><path d="M484.23 376H32.024a262.398 262.398 0 0 0 20.73 32h411.88a250.103 250.103 0 0 0 19.596-32z" fill="#d8c34a"/><path d="M21.428 354.449A260.29 260.29 0 0 0 32.024 376H484.23a249.902 249.902 0 0 0 10.754-24H21.428v2.449z" fill="#e5af7c"/><path d="M21.428 354.449c1.254 2.886 2.605 5.721 3.962 8.551h465.008c1.602-3.627 3.148-7.286 4.585-11H21.428v2.449z" fill="#d0d75b"/><path d="M223.505 69.796c0-11.474 9.445-20.776 21.097-20.776 1.759 0 3.44.274 5.073.673 5.505-5.854 13.31-9.577 22.052-9.577 16.645 0 30.138 13.288 30.138 29.679h-78.36z" fill="#fff1a9"/><path d="M259.469 79c0-9.295 7.652-16.831 17.091-16.831 1.425 0 2.787.222 4.11.545 4.46-4.743 10.783-7.758 17.864-7.758 13.484 0 24.416 10.765 24.416 24.044h-63.481zM415.469 177.837c0-7.026 5.784-12.721 12.918-12.721 1.077 0 2.106.168 3.106.412 3.371-3.585 8.15-5.864 13.503-5.864 10.192 0 18.454 8.137 18.454 18.173h-47.981zM163.67 159c0-6.867 5.653-12.433 12.626-12.433 1.052 0 2.059.164 3.036.403 3.294-3.504 7.966-5.731 13.197-5.731 9.961 0 18.036 7.952 18.036 17.762H163.67z" fill="#fff1a9"/><path d="M123.01 122.077c0-16.653 13.709-30.154 30.62-30.154 2.552 0 4.993.398 7.363.977 7.99-8.497 19.319-13.9 32.006-13.9 24.158 0 43.743 19.286 43.743 43.077H123.01zM372.44 121.017c-2.557 0-4.974.496-7.29 1.215-7.337-10.386-19.508-17.215-33.329-17.215s-25.992 6.829-33.329 17.215c-2.316-.719-4.733-1.215-7.29-1.215-13.46 0-24.371 10.745-24.371 24H396.81c.001-13.255-10.91-24-24.37-24z" fill="#ffeb97"/><path d="M403.623 115.426c-1.665 0-3.238.323-4.746.791a26.504 26.504 0 0 0-21.698-11.208 26.503 26.503 0 0 0-21.698 11.208c-1.508-.468-3.081-.791-4.746-.791-8.763 0-15.867 6.996-15.867 15.625h84.622c-.001-8.629-7.104-15.625-15.867-15.625zM140.823 116.486c-1.665 0-3.238.323-4.746.791-4.777-6.762-12.7-11.208-21.698-11.208s-16.922 4.446-21.698 11.208c-1.508-.468-3.081-.791-4.746-.791-8.763 0-15.867 6.996-15.867 15.625h84.622c-.001-8.629-7.105-15.625-15.867-15.625z" fill="#ffeb97"/><path fill="#f26e64" d="M403.957 192h-75.22l-30.088 32h135.395z"/><path d="M62.419 420h392.975a250.809 250.809 0 0 0 9.24-12H52.754a264.235 264.235 0 0 0 9.665 12z" fill="#d29672"/><path fill="#63a0b5" d="M223.505 288.627h24.371v32h-24.371z"/><path d="M249.907 322.629h-28.433v-36h28.433v36zm-24.371-4h20.309v-28h-20.309v28z" fill="#4185a6"/><path fill="#4185a6" d="M223.505 294.629h24.371v4h-24.371z"/><path fill="#63a0b5" d="M264.124 288.627h24.371v32h-24.371z"/><path d="M290.526 322.629h-28.433v-36h28.433v36zm-24.371-4h20.309v-28h-20.309v28z" fill="#4185a6"/><path fill="#4185a6" d="M264.124 294.629h24.371v4h-24.371z"/><path fill="#f26e64" d="M280.371 220.25h-48.742l-40.619 48h129.98z"/><path fill="#ebd7bd" d="M199.134 342h113.732v10H199.134z"/><path fill="#e8a271" d="M109.773 330.377h89.361V352h-89.361z"/><path fill="#ff8562" d="M199.134 268.25h113.732V278H199.134zM109.773 215.375h148.92v9.75h-148.92z" opacity=".25"/><path fill="#63a0b5" d="M329.452 288.627h18.278v32h-18.278z"/><path d="M349.764 322.629h-22.34v-36h22.34v36zm-18.279-4h14.216v-28h-14.216v28z" fill="#4185a6"/><path fill="#4185a6" d="M329.454 294.629h18.278v4h-18.278z"/><path fill="#63a0b5" d="M357.208 288.627h18.278v32h-18.278z"/><path d="M377.514 322.629h-22.34v-36h22.34v36zm-18.278-4h14.216v-28h-14.216v28z" fill="#4185a6"/><path fill="#4185a6" d="M357.205 294.629h18.278v4h-18.278z"/><path fill="#63a0b5" d="M384.964 288.627h18.278v32h-18.278z"/><path d="M405.273 322.629h-22.34v-36h22.34v36zm-18.278-4h14.216v-28h-14.216v28z" fill="#4185a6"/><path fill="#4185a6" d="M384.964 294.629h18.278v4h-18.278z"/><path fill="#63a0b5" d="M17.994 288.627h18.278v32H17.994z"/><path d="M38.302 322.629h-22.34v-36h22.34v36zm-18.278-4H34.24v-28H20.024v28z" fill="#4185a6"/><path fill="#4185a6" d="M17.993 294.629h18.278v4H17.993z"/><path fill="#63a0b5" d="M45.75 288.627h18.278v32H45.75z"/><path d="M66.061 322.629h-22.34v-36h22.34v36zm-18.278-4h14.216v-28H47.783v28z" fill="#4185a6"/><path fill="#4185a6" d="M45.752 294.629H64.03v4H45.752z"/><path fill="#63a0b5" d="M73.506 288.627h18.278v32H73.506z"/><path d="M93.812 322.629h-22.34v-36h22.34v36zm-18.279-4H89.75v-28H75.533v28z" fill="#4185a6"/><path fill="#4185a6" d="M73.502 294.629H91.78v4H73.502z"/><path fill="#63a0b5" d="M329.452 244h18.278v24h-18.278z"/><path d="M349.764 270h-22.34v-28h22.34v28zm-18.279-4h14.216v-20h-14.216v20z" fill="#4185a6"/><path fill="#4185a6" d="M329.454 250h18.278v4h-18.278z"/><path fill="#63a0b5" d="M357.208 244h18.278v24h-18.278z"/><path d="M377.514 270h-22.34v-28h22.34v28zm-18.278-4h14.216v-20h-14.216v20z" fill="#4185a6"/><path fill="#4185a6" d="M357.205 250h18.278v4h-18.278z"/><g><path fill="#63a0b5" d="M384.964 244h18.278v24h-18.278z"/><path d="M405.273 270h-22.34v-28h22.34v28zm-18.278-4h14.216v-20h-14.216v20z" fill="#4185a6"/><path fill="#4185a6" d="M384.964 250h18.278v4h-18.278z"/></g><g><path fill="#b66e64" d="M312.866 336.667h117.963V352H312.866z"/></g><g><path d="M372.752 347.203c-1.343 0-2.613.26-3.83.638a21.389 21.389 0 0 0-17.511-9.045 21.389 21.389 0 0 0-17.511 9.045c-1.217-.378-2.487-.638-3.83-.638-7.072 0-12.804 5.645-12.804 12.609h68.29c0-6.963-5.733-12.609-12.804-12.609z" fill="#69be5d"/><path d="M381.496 347.203c-1.343 0-2.613.26-3.83.638a21.389 21.389 0 0 0-17.511-9.045c-1.51 0-2.953.242-4.372.537 5.409 1.123 10.086 4.185 13.139 8.508 1.217-.378 2.487-.638 3.83-.638 7.072 0 12.804 5.646 12.804 12.609h8.744c0-6.963-5.732-12.609-12.804-12.609z" fill="#9dc85c"/></g><g><path d="M511.866 268.25h-81.038v20.377h79.568c.737-6.72 1.268-13.503 1.47-20.377z" fill="#f26e64"/></g><g><path fill="#63a0b5" d="M441.576 306.25h48.488v23.028h-48.488z"/><path d="M492.095 331.277h-52.55V304.25h52.55v27.027zm-48.488-4h44.426V308.25h-44.426v19.027z" fill="#4185a6"/><path fill="#4185a6" d="M463.789 306.25h4.062v23.027h-4.062z"/></g><g><path fill="#f26e64" d="M430.829 256h8.632v32.627h-8.632z"/></g><g><path fill="#f26e64" d="M109.773 174.789h8.632v27.838h-8.632z"/></g><g><path fill="#f26e64" d="M101.142 221.789h8.632v27.838h-8.632z"/></g><g><path fill="#b66e64" d="M142.98 168.75h11.424v27.307H142.98z"/></g><g><path fill="#b66e64" d="M214.063 168.75h11.424v27.307h-11.424z"/></g><g><path fill="#f26e64" d="M250.062 174.789h8.632v27.838h-8.632z"/></g><g opacity=".25"><path d="M510.396 288.627h-79.568v9.75h78.177c.484-3.243 1.031-6.465 1.391-9.75z" fill="#ff8562"/></g><g><path fill="#63a0b5" d="M136.852 286.877h18.278v32h-18.278z"/><path d="M157.159 320.879h-22.34v-36h22.34v36zm-18.278-4h14.216v-28h-14.216v28z" fill="#4185a6"/><path fill="#4185a6" d="M136.85 292.879h18.278v4H136.85z"/></g><g><path fill="#63a0b5" d="M169.686 286.877h18.278v32h-18.278z"/><path d="M189.995 320.879h-22.34v-36h22.34v36zm-18.278-4h14.216v-28h-14.216v28z" fill="#4185a6"/><path fill="#4185a6" d="M169.686 292.879h18.278v4h-18.278z"/></g><g><path fill="#63a0b5" d="M136.852 242.25h18.278v24h-18.278z"/><path d="M157.159 268.25h-22.34v-28h22.34v28zm-18.278-4h14.216v-20h-14.216v20z" fill="#4185a6"/><path fill="#4185a6" d="M136.85 248.25h18.278v4H136.85z"/></g><g><path fill="#63a0b5" d="M169.686 242.25h18.278v24h-18.278z"/><path d="M189.995 268.25h-22.34v-28h22.34v28zm-18.278-4h14.216v-20h-14.216v20z" fill="#4185a6"/><path fill="#4185a6" d="M169.686 248.25h18.278v4h-18.278z"/></g><g><path d="M109.773 232H.772c-.595 7.905-.874 15.902-.731 24 .048 2.683.215 5.337.344 8h109.388v-32z" fill="#f26e64"/></g><g><path d="M20.42 352h89.354v-15.333H14.572c1.81 5.177 3.724 10.307 5.848 15.333z" fill="#b66e64"/></g><g><path d="M106.779 357.756V316.78c0-2.103-1.731-3.808-3.869-3.808s-3.869 1.705-3.869 3.808v40.975h7.738z" fill="#996459"/><path d="M130.344 304.222c0 20.735-12.283 31.142-27.436 31.142s-27.436-10.408-27.436-31.142 16.806-101.594 27.436-101.594 27.436 80.859 27.436 101.594z" fill="#69be5d"/><path d="M102.908 202.627c-2.105 0-4.454 3.206-6.865 8.454 8.671 12.933 19.89 76.83 19.89 94.578 0 17.34-7.83 27.102-18.226 29.246 1.687.288 3.419.459 5.201.459 15.152 0 27.436-10.408 27.436-31.142 0-20.735-16.806-101.595-27.436-101.595z" fill="#9dc85c"/></g><g><path d="M140.185 357.756v-31.5c0-1.616-1.331-2.927-2.975-2.927-1.644 0-2.975 1.311-2.975 2.927v31.5h5.95z" fill="#996459"/><path d="M158.3 316.601c0 15.94-9.443 23.941-21.091 23.941s-21.091-8.001-21.091-23.941 12.92-78.102 21.091-78.102 21.091 62.162 21.091 78.102z" fill="#69be5d"/><path d="M137.209 238.499c-1.618 0-3.424 2.465-5.278 6.499 6.666 9.942 15.29 59.063 15.29 72.708 0 13.33-6.019 20.835-14.011 22.483a23.75 23.75 0 0 0 3.998.353c11.648 0 21.091-8.001 21.091-23.941s-12.919-78.102-21.09-78.102z" fill="#9dc85c"/></g><g><path d="M359.873 344.438c-1.638 0-3.186.317-4.67.778a26.078 26.078 0 0 0-21.351-11.028 26.08 26.08 0 0 0-21.351 11.028c-1.484-.461-3.032-.778-4.67-.778-8.623 0-15.613 6.884-15.613 15.375h83.268c0-8.492-6.99-15.375-15.613-15.375z" fill="#69be5d"/></g><g><path d="M333.556 344.438c-1.638 0-3.186.317-4.67.778a26.078 26.078 0 0 0-21.351-11.028 26.08 26.08 0 0 0-21.351 11.028c-1.484-.461-3.032-.778-4.67-.778-8.623 0-15.613 6.884-15.613 15.375h83.268c0-8.492-6.99-15.375-15.613-15.375z" fill="#69be5d"/><path d="M344.218 344.437c-1.638 0-3.186.317-4.67.778a26.079 26.079 0 0 0-21.352-11.028c-1.841 0-3.6.295-5.331.655 6.596 1.369 12.298 5.103 16.02 10.374 1.484-.461 3.032-.778 4.67-.778 8.623 0 15.613 6.884 15.613 15.375h10.662c.001-8.492-6.989-15.376-15.612-15.376z" fill="#9dc85c"/></g></svg></svg>